HIERARCHY
ROOT Hips
{
  OFFSET 0.0 0.0 0.0
  CHANNELS 6 Xposition Yposition Zposition Zrotation Yrotation Xrotation
  JOINT LHipJoint
  {
    OFFSET 0.0 0.0 0.0
    CHANNELS 3 Zrotation Yrotation Xrotation
    JOINT LeftUpLeg
    {
      OFFSET 1.363059998 -1.794630051 0.839290023
      CHANNELS 3 Zrotation Yrotation Xrotation
      JOINT LeftLeg
      {
        OFFSET 2.448110104 -6.726130009 0.0
        CHANNELS 3 Zrotation Yrotation Xrotation
        JOINT LeftFoot
        {
          OFFSET 2.562200069 -7.039589882 0.0
          CHANNELS 3 Zrotation Yrotation Xrotation
          JOINT LeftToeBase
          {
            OFFSET 0.157639995 -0.433109999 2.322550058
            CHANNELS 3 Zrotation Yrotation Xrotation
            End Site
            {
              OFFSET 0.0 -0.0 1.189659953
            }
          }
        }
      }
    }
  }
  JOINT RHipJoint
  {
    OFFSET 0.0 0.0 0.0
    CHANNELS 3 Zrotation Yrotation Xrotation
    JOINT RightUpLeg
    {
      OFFSET -1.305520058 -1.794630051 0.839290023
      CHANNELS 3 Zrotation Yrotation Xrotation
      JOINT RightLeg
      {
        OFFSET -2.54253006 -6.985549927 0.0
        CHANNELS 3 Zrotation Yrotation Xrotation
        JOINT RightFoot
        {
          OFFSET -2.568259954 -7.056230068 0.0
          CHANNELS 3 Zrotation Yrotation Xrotation
          JOINT RightToeBase
          {
            OFFSET -0.164729998 -0.452589989 2.363149881
            CHANNELS 3 Zrotation Yrotation Xrotation
            End Site
            {
              OFFSET -0.0 -0.0 1.21081996
            }
          }
        }
      }
    }
  }
  JOINT LowerBack
  {
    OFFSET 0.0 0.0 0.0
    CHANNELS 3 Zrotation Yrotation Xrotation
    JOINT Spine
    {
      OFFSET 0.028270001 2.035589933 -0.193379998
      CHANNELS 3 Zrotation Yrotation Xrotation
      JOINT Spine1
      {
        OFFSET 0.05672 2.04885006 -0.042750001
        CHANNELS 3 Zrotation Yrotation Xrotation
        JOINT Neck
        {
          OFFSET 0.0 0.0 0.0
          CHANNELS 3 Zrotation Yrotation Xrotation
          JOINT Neck1
          {
            OFFSET -0.054170001 1.74624002 0.172020003
            CHANNELS 3 Zrotation Yrotation Xrotation
            JOINT Head
            {
              OFFSET 0.10407 1.761360049 -0.123970002
              CHANNELS 3 Zrotation Yrotation Xrotation
              End Site
              {
                OFFSET 0.0372 1.770439982 -0.062410001
              }
            }
          }
        }
        JOINT LeftShoulder
        {
          OFFSET 0.0 0.0 0.0
          CHANNELS 3 Zrotation Yrotation Xrotation
          JOINT LeftArm
          {
            OFFSET 3.362410069 1.200889945 -0.311210006
            CHANNELS 3 Zrotation Yrotation Xrotation
            JOINT LeftForeArm
            {
              OFFSET 4.982999802 -0.0 -0.0
              CHANNELS 3 Zrotation Yrotation Xrotation
              JOINT LeftHand
              {
                OFFSET 3.483560085 -0.0 -0.0
                CHANNELS 3 Zrotation Yrotation Xrotation
                JOINT LeftFingerBase
                {
                  OFFSET 0.0 0.0 0.0
                  CHANNELS 3 Zrotation Yrotation Xrotation
                  JOINT LeftHandIndex1
                  {
                    OFFSET 0.715260029 -0.0 -0.0
                    CHANNELS 3 Zrotation Yrotation Xrotation
                    End Site
                    {
                      OFFSET 0.576659977 -0.0 -0.0
                    }
                  }
                }
                JOINT LThumb
                {
                  OFFSET 0.0 0.0 0.0
                  CHANNELS 3 Zrotation Yrotation Xrotation
                  End Site
                  {
                    OFFSET 0.585470021 -0.0 0.585470021
                  }
                }
              }
            }
          }
        }
        JOINT RightShoulder
        {
          OFFSET 0.0 0.0 0.0
          CHANNELS 3 Zrotation Yrotation Xrotation
          JOINT RightArm
          {
            OFFSET -3.136600018 1.374050021 -0.404650003
            CHANNELS 3 Zrotation Yrotation Xrotation
            JOINT RightForeArm
            {
              OFFSET -5.241899967 -0.0 -0.0
              CHANNELS 3 Zrotation Yrotation Xrotation
              JOINT RightHand
              {
                OFFSET -3.444169998 -0.0 -0.0
                CHANNELS 3 Zrotation Yrotation Xrotation
                JOINT RightFingerBase
                {
                  OFFSET 0.0 0.0 0.0
                  CHANNELS 3 Zrotation Yrotation Xrotation
                  JOINT RightHandIndex1
                  {
                    OFFSET -0.622529984 -0.0 -0.0
                    CHANNELS 3 Zrotation Yrotation Xrotation
                    End Site
                    {
                      OFFSET -0.501900017 -0.0 -0.0
                    }
                  }
                }
                JOINT RThumb
                {
                  OFFSET 0.0 0.0 0.0
                  CHANNELS 3 Zrotation Yrotation Xrotation
                  End Site
                  {
                    OFFSET -0.509559989 -0.0 0.509559989
                  }
                }
              }
            }
          }
        }
      }
    }
  }
}
MOTION
Frames: 8
Frame Time: 0.0083333
0.0 18.308200836 0.0 -172.694000244 16.865695953 179.42199707 0.0 -0.0 0.0 -8.147399902 -3.344400883 -20.324102402 13.324896812 18.896297455 70.131591797 -0.047700066 -6.223601341 7.453802586 0.520699978 4.624599934 12.840999603 0.0 -0.0 0.0 31.604001999 4.433900356 -3.937999725 -1.01760006 -6.417700291 18.001302719 -0.1237 -3.351300478 -8.743901253 -1.119300246 -6.720700264 18.890403748 -0.667599916 -0.468399912 8.843998909 9.445298195 0.493700206 4.608200073 10.407898903 0.584300041 -0.21890001 -15.83080101 -3.732899904 -8.303198814 4.898700714 -3.040900469 16.343105316 3.939998865 -1.857299805 6.727200031 0.0 -0.0 0.0 -97.15309906 3.647998571 19.534402847 21.023899078 -31.856204987 -6.062501907 0.0 -0.0 1.205999851 4.17470026 -14.675102234 -1.059400201 -7.125 0.0 0.0 -15.764201164 15.617697716 11.383194923 0.0 -0.0 0.0 74.293609619 6.279300213 11.759602547 -9.448401451 15.87220192 -1.320100307 0.0 0.0 -7.433900356 -26.734203339 -26.892602921 12.834703445 7.125 -0.0 0.0 3.922600746 -59.527805328 -1.392900825 
0.041898727 18.293699265 -0.150600433 -172.464004517 17.169399261 179.261001587 0.0 -0.0 0.0 -7.778999805 -3.270200491 -21.286104202 13.327796936 18.897298813 70.140701294 -0.121499971 -6.766301155 5.438001156 0.250699997 3.22200036 8.897399902 0.0 -0.0 0.0 31.875802994 3.913700104 -2.964900255 -0.963999987 -6.251400948 17.515699387 -0.150099948 -2.894499779 -8.978599548 -1.322099686 -7.282299995 20.554395676 -0.283299953 -0.378699929 9.10259819 9.360699654 0.654699922 4.558700085 10.064101219 0.678000033 -0.444800019 -15.878897667 -3.710899353 -8.062898636 4.963201046 -3.044000626 16.387201309 3.972100496 -1.855900288 6.701799393 0.0 -0.0 0.0 -97.251106262 4.217599869 19.18460083 20.933395386 -31.750495911 -6.014797688 0.0 -0.0 0.642400086 7.856600285 -14.728199959 -2.009200096 -7.125 0.0 0.0 -13.310798645 15.379797935 9.56939888 0.0 -0.0 0.0 74.374198914 6.532999516 6.676300049 -8.523500443 14.397799492 -1.078600168 0.0 -0.0 1.286200047 -16.924995422 -18.699199677 5.572099209 7.125 -0.0 0.0 11.028500557 -49.144096375 -1.139600515 
0.085899353 18.287200928 -0.297599792 -172.240005493 17.439908981 179.154006958 0.0 -0.0 0.0 -7.358199596 -3.35909915 -22.211296082 13.269901276 18.877397537 69.961585999 -0.149000019 -6.927000046 3.780100346 0.152399972 2.515700102 6.933298588 0.0 -0.0 0.0 32.115802765 3.328000784 -2.141700268 -0.922799766 -6.120199203 17.133399963 -0.162800089 -2.465600014 -8.945501328 -1.117299914 -6.714699745 18.872995377 0.050999995 -0.290099919 9.340201378 9.27449894 0.809500277 4.521299362 9.7497015 0.765400112 -0.642100036 -15.873096466 -3.646899223 -8.128898621 5.081898689 -2.954099417 16.647399902 4.022298336 -1.806599617 6.788099766 0.0 -0.0 0.0 -97.312606812 4.703800678 19.077102661 20.791400909 -31.584001541 -5.940300465 0.0 0.0 -0.674900055 11.977003098 -15.266599655 -3.197099447 -7.125 0.0 0.0 -10.534702301 14.571102142 7.678700447 0.0 -0.0 0.0 74.629219055 6.302500248 8.749300003 -8.902198792 15.004403114 -1.174699664 0.0 0.0 -1.335300207 -18.416698456 -19.874101639 6.458300114 7.125 -0.0 0.0 9.986400604 -50.569293976 -1.38250041 
0.131299973 18.280399323 -0.446901321 -172.119003296 17.884399414 179.072006226 0.0 -0.0 0.0 -7.059799671 -3.377199888 -23.065099716 13.098793983 18.817495346 69.432113647 -0.149200022 -6.832600117 2.527800322 0.137199998 2.387099981 6.576900005 0.0 -0.0 0.0 32.26379776 3.083399773 -1.35679996 -0.906200171 -6.066200256 16.97659874 -0.212800011 -1.810499668 -9.572797775 -1.670399666 -8.142997742 23.14919281 0.234099939 -0.122599989 9.515197754 9.133599281 1.038500071 4.520099163 9.456300735 0.880199969 -0.776299953 -15.576498032 -3.555399179 -8.409798622 5.06290102 -2.823300123 16.889698029 3.981700182 -1.73179996 6.893499851 0.0 -0.0 0.0 -97.242301941 5.155200958 19.100799561 20.696706772 -31.472610474 -5.890805244 0.0 0.0 -2.180400133 15.11729908 -8.865197182 -2.383999348 -7.125 0.0 0.0 -8.473402023 20.845600128 4.957100391 0.0 -0.0 0.0 74.981002808 6.276500225 9.349300385 -9.108899117 15.333800316 -1.228800058 0.0 0.0 -1.818400025 -18.737003326 -20.060001373 6.636400223 7.125 -0.0 0.0 9.737500191 -50.811397552 -1.405800223 
0.171499252 18.277000427 -0.611499786 -171.988006592 18.680879593 178.891998291 0.0 -0.0 0.0 -6.83329916 -2.945199966 -23.630899429 12.84829998 18.726697922 68.653717041 -0.138799965 -6.703700066 1.139999986 0.119400002 2.227800369 6.135600567 0.0 -0.0 0.0 32.346996307 2.816800117 -0.323699921 -0.876700044 -5.969399929 16.695697784 -0.22119996 -1.274500132 -9.444200516 -1.657399893 -8.112798691 23.057197571 0.541599989 0.135599986 9.628099442 8.951700211 1.390400171 4.611199856 9.030499458 1.054999948 -0.793299973 -15.277299881 -3.45870018 -8.607198715 5.056899548 -2.707099915 17.041601181 3.943100214 -1.661299944 6.957000256 0.0 -0.0 0.0 -97.181396484 5.589698792 18.898899078 20.608301163 -31.368204117 -5.844699383 0.0 0.0 -3.052400112 15.9272995 -8.950699806 -2.542199373 -7.125 0.0 0.0 -7.89040041 20.716997147 4.632400513 0.0 -0.0 0.0 75.314193726 6.23290062 9.730398178 -9.310998917 15.654700279 -1.28279984 0.0 0.0 -1.879599571 -17.966094971 -19.780994415 6.262598038 7.125 -0.0 0.0 10.392004013 -50.402111053 -1.396703124 
0.208198547 18.268100739 -0.773200989 -171.636993408 19.372497559 178.729003906 0.0 -0.0 0.0 -6.382199287 -2.551100254 -24.108100891 12.546805382 18.612401962 67.711898804 -0.147 -7.077099323 0.42809996 0.212400034 2.966799974 8.18629837 0.0 -0.0 0.0 32.611194611 2.323799849 0.681100011 -0.844900191 -5.862700462 16.386701584 -0.237800002 -0.519500017 -9.414599419 -1.451300144 -7.615001202 21.550502777 1.122499824 0.323000044 9.830497742 8.836400986 1.699899912 4.705900669 8.523000717 1.220800281 -0.839200199 -15.069401741 -3.382399559 -8.597999573 5.074999809 -2.642499685 17.063898087 3.921999693 -1.616899848 6.95029974 0.0 -0.0 0.0 -97.188209534 5.858300686 18.191297531 20.404500961 -31.126596451 -5.739001751 0.0 0.0 -2.56580019 15.618201256 -6.630499363 -1.848799944 -7.125 0.0 0.0 -8.18519783 23.113901138 4.358100414 0.0 -0.0 0.0 75.531204224 6.141599178 10.736901283 -9.594099045 16.102100372 -1.36019969 0.0 0.0 -2.911800385 -17.061903 -19.086004257 5.730801582 7.125 -0.0 0.0 11.02659893 -49.555702209 -1.252199531 
0.250398636 18.248699188 -0.920499802 -171.31199646 19.705898285 178.67199707 0.0 -0.0 0.0 -5.929199696 -2.577800035 -24.744199753 12.202703476 18.475002289 66.629875183 -0.1382 -7.09539938 -0.248200059 0.265299976 3.313200474 9.152100563 0.0 -0.0 0.0 32.914596558 1.91990006 1.535399795 -0.81099999 -5.746900082 16.051700592 -0.252199948 -0.1646 -9.545899391 -1.493500233 -7.720001698 21.86689949 1.547199965 0.417899966 10.086400032 8.757199287 1.881700277 4.699999332 8.160900116 1.321000338 -1.000199914 -14.807995796 -3.36899972 -8.633500099 4.950799942 -2.629499435 17.213695526 3.841799498 -1.60529995 6.997500896 0.0 -0.0 0.0 -97.144981384 6.106099606 17.590000153 20.226810455 -30.914604187 -5.647402287 0.0 0.0 -2.101900339 15.23360157 -6.010500431 -1.633400321 -7.125 0.0 0.0 -8.49450016 23.762302399 4.398200512 0.0 -0.0 0.0 75.716209412 5.956799984 11.976100922 -9.950800896 16.662599564 -1.460799694 0.0 0.0 -4.097099781 -16.251899719 -18.283603668 5.225300312 7.125 -0.0 0.0 11.530301094 -48.625408173 -1.043799639 
0.295000076 18.22769928 -1.067800522 -171.041000366 19.991203308 178.727005005 0.0 -0.0 0.0 -5.557100773 -2.649900436 -25.47369957 11.818507195 18.312906265 65.412475586 -0.102699995 -6.773798943 -1.473499894 0.139299989 2.40569973 6.62830019 0.0 -0.0 0.0 33.188598633 1.744499683 2.320200443 -0.782299995 -5.646699429 15.76280117 -0.282600015 0.104999989 -10.004499435 -1.517699599 -7.779400349 22.046098709 1.882700443 0.507399797 10.183502197 8.674500465 2.032000303 4.658800602 7.853099823 1.399400115 -1.105499983 -14.60009861 -3.360399723 -8.635799408 4.83949995 -2.619800091 17.364599228 3.774500132 -1.597100139 7.041100025 0.0 -0.0 0.0 -97.102386475 6.449296474 17.138498306 20.080507278 -30.739204407 -5.572403431 0.0 0.0 -2.114900112 15.321803093 -6.140301228 -1.67860055 -7.125 0.0 0.0 -8.423501968 23.62660408 4.387299061 0.0 -0.0 0.0 75.940101624 5.699401379 13.387200356 -10.37239933 17.319993973 -1.583999395 0.0 0.0 -4.736599922 -16.756498337 -18.798299789 5.541699409 7.125 -0.0 0.0 11.221899986 -49.219303131 -1.180999041 
